# xmcd CD database file
#
# Track frame offsets:
#	150
#	13862
#	27688
#	41327
#	59844
#	71005
#	78901
#	91575
#	101607
#	112298
#	128332
#	141221
#
# Disc length: 2076 seconds
#
# Revision: 1
# Processed by: cddbd v1.5.2PL0 Copyright (c) Steve Scherf et al.
# Submitted via: CDex 1.50Beta7
#
DISCID=a3081a0c
DTITLE=Tião Carreiro e Pardinho - Os Reis do Pagode
DYEAR=1965
DGENRE=Sertanejo
TTITLE0=Margarida
TTITLE1=Rei do pagode
TTITLE2=Triste separação
TTITLE3=Padecimento
TTITLE4=Mineirada boa
TTITLE5=Remediado
TTITLE6=Vai Saudade
TTITLE7=Não é Mole não
TTITLE8=Meu amor chorou
TTITLE9=Ladrão de terra
TTITLE10=Tenente mineirinho
TTITLE11=Por ti padeço
EXTD=YEAR: 1965
EXTT0=
EXTT1=
EXTT2=
EXTT3=
EXTT4=
EXTT5=
EXTT6=
EXTT7=
EXTT8=
EXTT9=
EXTT10=
EXTT11=
PLAYORDER=
